<svg xmlns="http://www.w3.org/2000/svg" xmlns:xlink="http://www.w3.org/1999/xlink" width="500" zoomAndPan="magnify" viewBox="0 0 375 374.999991" height="500" preserveAspectRatio="xMidYMid meet" version="1.0"><defs><g/><clipPath id="9df4f26848"><path d="M 122 90 L 255.808594 90 L 255.808594 223.917969 L 122 223.917969 Z M 122 90 " clip-rule="nonzero"/></clipPath></defs><path fill="#ffffff" d="M 191.898438 157.402344 C 191.898438 159 190.601562 160.292969 189.007812 160.292969 C 187.410156 160.292969 186.113281 159 186.113281 157.402344 C 186.113281 155.804688 187.410156 154.511719 189.007812 154.511719 C 190.601562 154.511719 191.898438 155.804688 191.898438 157.402344 Z M 191.898438 157.402344 " fill-opacity="1" fill-rule="nonzero"/><path fill="#ffffff" d="M 189.007812 142.941406 C 181.035156 142.941406 174.546875 149.429688 174.546875 157.402344 C 174.546875 165.375 181.035156 171.863281 189.007812 171.863281 C 196.976562 171.863281 203.464844 165.382812 203.464844 157.402344 C 203.464844 149.425781 196.976562 142.941406 189.007812 142.941406 Z M 189.007812 166.078125 C 184.222656 166.078125 180.328125 162.191406 180.328125 157.402344 C 180.328125 152.613281 184.222656 148.726562 189.007812 148.726562 C 193.789062 148.726562 197.683594 152.617188 197.683594 157.402344 C 197.683594 162.1875 193.789062 166.078125 189.007812 166.078125 Z M 189.007812 166.078125 " fill-opacity="1" fill-rule="nonzero"/><g clip-path="url(#9df4f26848)"><path fill="#ffffff" d="M 189.007812 90.886719 C 152.328125 90.886719 122.492188 120.730469 122.492188 157.402344 C 122.492188 194.070312 152.328125 223.917969 189.007812 223.917969 C 225.683594 223.917969 255.519531 194.078125 255.519531 157.402344 C 255.519531 120.726562 225.683594 90.886719 189.007812 90.886719 Z M 150.195312 169.320312 C 151.691406 168.746094 153.359375 169.484375 153.9375 170.972656 C 158.386719 182.46875 168.1875 191.054688 180.148438 193.949219 C 181.699219 194.316406 182.65625 195.882812 182.277344 197.4375 C 181.957031 198.765625 180.777344 199.652344 179.480469 199.652344 C 179.25 199.652344 179.023438 199.628906 178.796875 199.570312 C 165 196.234375 153.6875 186.332031 148.546875 173.058594 C 147.964844 171.574219 148.703125 169.898438 150.195312 169.320312 Z M 180.46875 211.65625 C 180.3125 211.65625 180.152344 211.644531 179.988281 211.617188 C 159.355469 208.21875 142.199219 193.03125 136.285156 172.957031 C 135.832031 171.425781 136.707031 169.8125 138.242188 169.363281 C 139.78125 168.925781 141.382812 169.796875 141.824219 171.324219 C 147.121094 189.292969 162.464844 202.863281 180.921875 205.921875 C 182.5 206.1875 183.5625 207.671875 183.304688 209.246094 C 183.082031 210.652344 181.855469 211.65625 180.46875 211.65625 Z M 189.007812 177.644531 C 177.84375 177.644531 168.761719 168.566406 168.761719 157.402344 C 168.761719 146.238281 177.84375 137.160156 189.007812 137.160156 C 200.167969 137.160156 209.25 146.242188 209.25 157.402344 C 209.25 168.5625 200.167969 177.644531 189.007812 177.644531 Z M 229.492188 160.292969 C 227.890625 160.292969 226.601562 159.003906 226.601562 157.402344 C 226.601562 136.671875 209.734375 119.808594 189.007812 119.808594 C 187.40625 119.808594 186.113281 118.515625 186.113281 116.914062 C 186.113281 115.3125 187.40625 114.023438 189.007812 114.023438 C 212.929688 114.023438 232.386719 133.484375 232.386719 157.402344 C 232.386719 159.003906 231.09375 160.292969 229.492188 160.292969 Z M 241.0625 160.292969 C 239.460938 160.292969 238.167969 159.003906 238.167969 157.402344 C 238.167969 130.292969 216.105469 108.238281 189.007812 108.238281 C 187.40625 108.238281 186.113281 106.949219 186.113281 105.347656 C 186.113281 103.746094 187.40625 102.457031 189.007812 102.457031 C 219.304688 102.457031 243.953125 127.109375 243.953125 157.402344 C 243.953125 159.003906 242.660156 160.292969 241.0625 160.292969 Z M 241.0625 160.292969 " fill-opacity="1" fill-rule="nonzero"/></g><g fill="#ffffff" fill-opacity="1"><g transform="translate(136.943272, 283.982794)"><g><path d="M 9.921875 -9.109375 C 9.921875 -7.804688 9.472656 -6.800781 8.578125 -6.09375 C 7.691406 -5.394531 6.421875 -5.046875 4.765625 -5.046875 L 3.265625 -5.046875 L 3.265625 0 L 1.765625 0 L 1.765625 -12.84375 L 5.09375 -12.84375 C 8.3125 -12.84375 9.921875 -11.597656 9.921875 -9.109375 Z M 3.265625 -6.34375 L 4.609375 -6.34375 C 5.929688 -6.34375 6.890625 -6.554688 7.484375 -6.984375 C 8.078125 -7.410156 8.375 -8.09375 8.375 -9.03125 C 8.375 -9.882812 8.09375 -10.519531 7.53125 -10.9375 C 6.976562 -11.351562 6.113281 -11.5625 4.9375 -11.5625 L 3.265625 -11.5625 Z M 3.265625 -6.34375 "/></g></g><g transform="translate(147.780186, 283.982794)"><g><path d="M 5.9375 -9.8125 C 6.363281 -9.8125 6.75 -9.773438 7.09375 -9.703125 L 6.890625 -8.34375 C 6.492188 -8.4375 6.144531 -8.484375 5.84375 -8.484375 C 5.0625 -8.484375 4.390625 -8.164062 3.828125 -7.53125 C 3.273438 -6.894531 3 -6.109375 3 -5.171875 L 3 0 L 1.546875 0 L 1.546875 -9.640625 L 2.75 -9.640625 L 2.921875 -7.84375 L 2.984375 -7.84375 C 3.347656 -8.476562 3.78125 -8.960938 4.28125 -9.296875 C 4.78125 -9.640625 5.332031 -9.8125 5.9375 -9.8125 Z M 5.9375 -9.8125 "/></g></g><g transform="translate(155.127841, 283.982794)"><g><path d="M 9.859375 -4.828125 C 9.859375 -3.253906 9.460938 -2.023438 8.671875 -1.140625 C 7.878906 -0.265625 6.785156 0.171875 5.390625 0.171875 C 4.535156 0.171875 3.769531 -0.0234375 3.09375 -0.421875 C 2.425781 -0.828125 1.910156 -1.410156 1.546875 -2.171875 C 1.191406 -2.929688 1.015625 -3.816406 1.015625 -4.828125 C 1.015625 -6.398438 1.40625 -7.625 2.1875 -8.5 C 2.96875 -9.375 4.054688 -9.8125 5.453125 -9.8125 C 6.804688 -9.8125 7.878906 -9.363281 8.671875 -8.46875 C 9.460938 -7.570312 9.859375 -6.359375 9.859375 -4.828125 Z M 2.515625 -4.828125 C 2.515625 -3.597656 2.757812 -2.660156 3.25 -2.015625 C 3.75 -1.367188 4.476562 -1.046875 5.4375 -1.046875 C 6.382812 -1.046875 7.101562 -1.363281 7.59375 -2 C 8.09375 -2.644531 8.34375 -3.585938 8.34375 -4.828125 C 8.34375 -6.046875 8.09375 -6.972656 7.59375 -7.609375 C 7.101562 -8.242188 6.378906 -8.5625 5.421875 -8.5625 C 4.460938 -8.5625 3.738281 -8.25 3.25 -7.625 C 2.757812 -7 2.515625 -6.066406 2.515625 -4.828125 Z M 2.515625 -4.828125 "/></g></g><g transform="translate(165.999911, 283.982794)"><g><path d="M 8.109375 -1.296875 L 8.03125 -1.296875 C 7.351562 -0.316406 6.34375 0.171875 5 0.171875 C 3.738281 0.171875 2.757812 -0.253906 2.0625 -1.109375 C 1.363281 -1.972656 1.015625 -3.203125 1.015625 -4.796875 C 1.015625 -6.378906 1.363281 -7.609375 2.0625 -8.484375 C 2.769531 -9.367188 3.75 -9.8125 5 -9.8125 C 6.3125 -9.8125 7.3125 -9.335938 8 -8.390625 L 8.125 -8.390625 L 8.0625 -9.078125 L 8.03125 -9.75 L 8.03125 -13.671875 L 9.484375 -13.671875 L 9.484375 0 L 8.296875 0 Z M 5.1875 -1.046875 C 6.1875 -1.046875 6.910156 -1.316406 7.359375 -1.859375 C 7.804688 -2.398438 8.03125 -3.273438 8.03125 -4.484375 L 8.03125 -4.796875 C 8.03125 -6.160156 7.800781 -7.132812 7.34375 -7.71875 C 6.882812 -8.300781 6.160156 -8.59375 5.171875 -8.59375 C 4.316406 -8.59375 3.660156 -8.257812 3.203125 -7.59375 C 2.742188 -6.925781 2.515625 -5.984375 2.515625 -4.765625 C 2.515625 -3.535156 2.738281 -2.609375 3.1875 -1.984375 C 3.644531 -1.359375 4.3125 -1.046875 5.1875 -1.046875 Z M 5.1875 -1.046875 "/></g></g><g transform="translate(177.030184, 283.982794)"><g><path d="M 2.921875 -9.640625 L 2.921875 -3.390625 C 2.921875 -2.597656 3.097656 -2.007812 3.453125 -1.625 C 3.804688 -1.238281 4.367188 -1.046875 5.140625 -1.046875 C 6.140625 -1.046875 6.875 -1.320312 7.34375 -1.875 C 7.8125 -2.425781 8.046875 -3.328125 8.046875 -4.578125 L 8.046875 -9.640625 L 9.5 -9.640625 L 9.5 0 L 8.296875 0 L 8.09375 -1.296875 L 8 -1.296875 C 7.707031 -0.816406 7.296875 -0.453125 6.765625 -0.203125 C 6.234375 0.046875 5.628906 0.171875 4.953125 0.171875 C 3.773438 0.171875 2.894531 -0.101562 2.3125 -0.65625 C 1.726562 -1.21875 1.4375 -2.109375 1.4375 -3.328125 L 1.4375 -9.640625 Z M 2.921875 -9.640625 "/></g></g><g transform="translate(188.078035, 283.982794)"><g><path d="M 5.390625 0.171875 C 4.003906 0.171875 2.925781 -0.253906 2.15625 -1.109375 C 1.394531 -1.972656 1.015625 -3.1875 1.015625 -4.75 C 1.015625 -6.363281 1.398438 -7.609375 2.171875 -8.484375 C 2.953125 -9.367188 4.0625 -9.8125 5.5 -9.8125 C 5.957031 -9.8125 6.414062 -9.757812 6.875 -9.65625 C 7.34375 -9.5625 7.707031 -9.445312 7.96875 -9.3125 L 7.53125 -8.0625 C 7.207031 -8.195312 6.851562 -8.304688 6.46875 -8.390625 C 6.082031 -8.472656 5.742188 -8.515625 5.453125 -8.515625 C 3.492188 -8.515625 2.515625 -7.265625 2.515625 -4.765625 C 2.515625 -3.585938 2.753906 -2.679688 3.234375 -2.046875 C 3.710938 -1.410156 4.421875 -1.09375 5.359375 -1.09375 C 6.160156 -1.09375 6.984375 -1.269531 7.828125 -1.625 L 7.828125 -0.328125 C 7.179688 0.00390625 6.367188 0.171875 5.390625 0.171875 Z M 5.390625 0.171875 "/></g></g><g transform="translate(196.64737, 283.982794)"><g><path d="M 4.65625 -1.03125 C 4.914062 -1.03125 5.164062 -1.046875 5.40625 -1.078125 C 5.644531 -1.117188 5.835938 -1.160156 5.984375 -1.203125 L 5.984375 -0.09375 C 5.816406 -0.0078125 5.578125 0.0507812 5.265625 0.09375 C 4.960938 0.144531 4.691406 0.171875 4.453125 0.171875 C 2.585938 0.171875 1.65625 -0.804688 1.65625 -2.765625 L 1.65625 -8.5 L 0.265625 -8.5 L 0.265625 -9.203125 L 1.65625 -9.8125 L 2.265625 -11.859375 L 3.109375 -11.859375 L 3.109375 -9.640625 L 5.90625 -9.640625 L 5.90625 -8.5 L 3.109375 -8.5 L 3.109375 -2.828125 C 3.109375 -2.242188 3.242188 -1.796875 3.515625 -1.484375 C 3.796875 -1.179688 4.175781 -1.03125 4.65625 -1.03125 Z M 4.65625 -1.03125 "/></g></g><g transform="translate(203.001862, 283.982794)"><g><path d="M 3 0 L 1.546875 0 L 1.546875 -9.640625 L 3 -9.640625 Z M 1.421875 -12.25 C 1.421875 -12.582031 1.503906 -12.820312 1.671875 -12.96875 C 1.835938 -13.125 2.039062 -13.203125 2.28125 -13.203125 C 2.519531 -13.203125 2.722656 -13.125 2.890625 -12.96875 C 3.054688 -12.8125 3.140625 -12.570312 3.140625 -12.25 C 3.140625 -11.914062 3.054688 -11.664062 2.890625 -11.5 C 2.722656 -11.34375 2.519531 -11.265625 2.28125 -11.265625 C 2.039062 -11.265625 1.835938 -11.34375 1.671875 -11.5 C 1.503906 -11.664062 1.421875 -11.914062 1.421875 -12.25 Z M 1.421875 -12.25 "/></g></g><g transform="translate(207.554596, 283.982794)"><g><path d="M 9.859375 -4.828125 C 9.859375 -3.253906 9.460938 -2.023438 8.671875 -1.140625 C 7.878906 -0.265625 6.785156 0.171875 5.390625 0.171875 C 4.535156 0.171875 3.769531 -0.0234375 3.09375 -0.421875 C 2.425781 -0.828125 1.910156 -1.410156 1.546875 -2.171875 C 1.191406 -2.929688 1.015625 -3.816406 1.015625 -4.828125 C 1.015625 -6.398438 1.40625 -7.625 2.1875 -8.5 C 2.96875 -9.375 4.054688 -9.8125 5.453125 -9.8125 C 6.804688 -9.8125 7.878906 -9.363281 8.671875 -8.46875 C 9.460938 -7.570312 9.859375 -6.359375 9.859375 -4.828125 Z M 2.515625 -4.828125 C 2.515625 -3.597656 2.757812 -2.660156 3.25 -2.015625 C 3.75 -1.367188 4.476562 -1.046875 5.4375 -1.046875 C 6.382812 -1.046875 7.101562 -1.363281 7.59375 -2 C 8.09375 -2.644531 8.34375 -3.585938 8.34375 -4.828125 C 8.34375 -6.046875 8.09375 -6.972656 7.59375 -7.609375 C 7.101562 -8.242188 6.378906 -8.5625 5.421875 -8.5625 C 4.460938 -8.5625 3.738281 -8.25 3.25 -7.625 C 2.757812 -7 2.515625 -6.066406 2.515625 -4.828125 Z M 2.515625 -4.828125 "/></g></g><g transform="translate(218.426665, 283.982794)"><g><path d="M 8.140625 0 L 8.140625 -6.234375 C 8.140625 -7.015625 7.957031 -7.597656 7.59375 -7.984375 C 7.238281 -8.367188 6.679688 -8.5625 5.921875 -8.5625 C 4.910156 -8.5625 4.171875 -8.289062 3.703125 -7.75 C 3.234375 -7.207031 3 -6.304688 3 -5.046875 L 3 0 L 1.546875 0 L 1.546875 -9.640625 L 2.734375 -9.640625 L 2.96875 -8.3125 L 3.046875 -8.3125 C 3.335938 -8.789062 3.753906 -9.160156 4.296875 -9.421875 C 4.835938 -9.679688 5.4375 -9.8125 6.09375 -9.8125 C 7.257812 -9.8125 8.132812 -9.53125 8.71875 -8.96875 C 9.300781 -8.40625 9.59375 -7.507812 9.59375 -6.28125 L 9.59375 0 Z M 8.140625 0 "/></g></g><g transform="translate(229.474516, 283.982794)"><g><path d="M 7.765625 -2.625 C 7.765625 -1.726562 7.425781 -1.035156 6.75 -0.546875 C 6.082031 -0.0664062 5.148438 0.171875 3.953125 0.171875 C 2.671875 0.171875 1.671875 -0.03125 0.953125 -0.4375 L 0.953125 -1.78125 C 1.421875 -1.550781 1.921875 -1.367188 2.453125 -1.234375 C 2.984375 -1.097656 3.492188 -1.03125 3.984375 -1.03125 C 4.742188 -1.03125 5.328125 -1.148438 5.734375 -1.390625 C 6.148438 -1.640625 6.359375 -2.007812 6.359375 -2.5 C 6.359375 -2.875 6.191406 -3.195312 5.859375 -3.46875 C 5.535156 -3.738281 4.90625 -4.050781 3.96875 -4.40625 C 3.070312 -4.738281 2.429688 -5.03125 2.046875 -5.28125 C 1.671875 -5.53125 1.390625 -5.8125 1.203125 -6.125 C 1.023438 -6.445312 0.9375 -6.828125 0.9375 -7.265625 C 0.9375 -8.054688 1.253906 -8.675781 1.890625 -9.125 C 2.523438 -9.582031 3.398438 -9.8125 4.515625 -9.8125 C 5.554688 -9.8125 6.570312 -9.597656 7.5625 -9.171875 L 7.046875 -7.984375 C 6.078125 -8.390625 5.195312 -8.59375 4.40625 -8.59375 C 3.71875 -8.59375 3.195312 -8.484375 2.84375 -8.265625 C 2.5 -8.046875 2.328125 -7.742188 2.328125 -7.359375 C 2.328125 -7.109375 2.390625 -6.890625 2.515625 -6.703125 C 2.648438 -6.523438 2.863281 -6.351562 3.15625 -6.1875 C 3.445312 -6.019531 4.007812 -5.78125 4.84375 -5.46875 C 5.988281 -5.0625 6.757812 -4.644531 7.15625 -4.21875 C 7.5625 -3.800781 7.765625 -3.269531 7.765625 -2.625 Z M 7.765625 -2.625 "/></g></g></g><g fill="#ffffff" fill-opacity="1"><g transform="translate(151.85032, 260.99531)"><g><path d="M 0.609375 0 L 0.609375 -1.828125 C 0.609375 -2.253906 0.851562 -2.570312 1.34375 -2.78125 C 1.75 -2.945312 2.40625 -3.222656 3.3125 -3.609375 L 12.09375 -26.03125 L 17.0625 -26.03125 L 25.890625 -3.609375 C 26.796875 -3.222656 27.453125 -2.945312 27.859375 -2.78125 C 28.316406 -2.613281 28.546875 -2.296875 28.546875 -1.828125 L 28.546875 0 L 19.765625 0 L 19.765625 -1.828125 C 19.765625 -2.253906 20.003906 -2.570312 20.484375 -2.78125 C 20.492188 -2.789062 20.53125 -2.800781 20.59375 -2.8125 C 20.65625 -2.832031 20.742188 -2.863281 20.859375 -2.90625 C 20.972656 -2.957031 21.085938 -3.007812 21.203125 -3.0625 L 21.0625 -3.46875 L 19.765625 -6.984375 L 9.40625 -6.984375 L 8.0625 -3.265625 L 7.96875 -3.0625 C 8.082031 -3.007812 8.191406 -2.957031 8.296875 -2.90625 C 8.410156 -2.863281 8.5 -2.832031 8.5625 -2.8125 C 8.632812 -2.789062 8.675781 -2.78125 8.6875 -2.78125 C 9.164062 -2.570312 9.40625 -2.253906 9.40625 -1.828125 L 9.40625 0 Z M 10.65625 -10.40625 L 18.546875 -10.40625 L 15.5625 -18.515625 C 15.507812 -18.628906 15.429688 -18.828125 15.328125 -19.109375 C 15.222656 -19.398438 15.140625 -19.640625 15.078125 -19.828125 C 15.035156 -19.972656 14.867188 -20.550781 14.578125 -21.5625 C 14.285156 -20.519531 14.117188 -19.941406 14.078125 -19.828125 C 14.035156 -19.660156 13.988281 -19.5 13.9375 -19.34375 C 13.882812 -19.1875 13.820312 -19.023438 13.75 -18.859375 C 13.6875 -18.691406 13.640625 -18.5625 13.609375 -18.46875 Z M 10.65625 -10.40625 "/></g></g></g><g fill="#ffffff" fill-opacity="1"><g transform="translate(181.605163, 260.99531)"><g><path d="M 0.71875 0 L 0.71875 -2.125 C 0.71875 -2.726562 1.019531 -3.097656 1.625 -3.234375 C 1.6875 -3.234375 1.753906 -3.242188 1.828125 -3.265625 C 1.984375 -3.316406 2.164062 -3.359375 2.375 -3.390625 C 2.445312 -3.398438 2.535156 -3.414062 2.640625 -3.4375 C 2.753906 -3.457031 2.894531 -3.476562 3.0625 -3.5 C 3.226562 -3.519531 3.363281 -3.539062 3.46875 -3.5625 L 3.46875 -22.46875 C 3.363281 -22.488281 3.226562 -22.507812 3.0625 -22.53125 C 2.894531 -22.5625 2.753906 -22.582031 2.640625 -22.59375 C 2.535156 -22.613281 2.445312 -22.628906 2.375 -22.640625 C 2.289062 -22.648438 2.1875 -22.671875 2.0625 -22.703125 C 1.9375 -22.734375 1.859375 -22.75 1.828125 -22.75 C 1.753906 -22.769531 1.6875 -22.78125 1.625 -22.78125 C 1.019531 -22.925781 0.71875 -23.300781 0.71875 -23.90625 L 0.71875 -26.03125 L 11.015625 -26.03125 L 11.015625 -23.90625 C 11.015625 -23.300781 10.710938 -22.925781 10.109375 -22.78125 C 10.035156 -22.78125 9.960938 -22.769531 9.890625 -22.75 C 9.796875 -22.707031 9.617188 -22.671875 9.359375 -22.640625 C 9.265625 -22.628906 9.085938 -22.601562 8.828125 -22.5625 C 8.578125 -22.519531 8.394531 -22.488281 8.28125 -22.46875 L 8.28125 -3.984375 L 16.671875 -3.984375 C 16.734375 -4.953125 16.78125 -5.46875 16.8125 -5.53125 C 16.914062 -5.988281 17.195312 -6.21875 17.65625 -6.21875 L 19.578125 -6.21875 L 19.578125 0 Z M 0.71875 0 "/></g></g></g><g fill="#ffffff" fill-opacity="1"><g transform="translate(202.483053, 260.99531)"><g><path d="M 0.71875 0 L 0.71875 -2.125 C 0.71875 -2.726562 1.019531 -3.097656 1.625 -3.234375 L 1.6875 -3.25 C 1.738281 -3.257812 1.785156 -3.265625 1.828125 -3.265625 C 1.859375 -3.265625 1.9375 -3.28125 2.0625 -3.3125 C 2.1875 -3.351562 2.289062 -3.378906 2.375 -3.390625 C 2.445312 -3.398438 2.535156 -3.414062 2.640625 -3.4375 C 2.753906 -3.457031 2.894531 -3.476562 3.0625 -3.5 C 3.226562 -3.519531 3.363281 -3.539062 3.46875 -3.5625 L 3.46875 -22.46875 C 3.363281 -22.488281 3.226562 -22.507812 3.0625 -22.53125 C 2.894531 -22.5625 2.753906 -22.582031 2.640625 -22.59375 C 2.535156 -22.613281 2.445312 -22.628906 2.375 -22.640625 C 2.289062 -22.648438 2.1875 -22.671875 2.0625 -22.703125 C 1.9375 -22.734375 1.859375 -22.75 1.828125 -22.75 C 1.785156 -22.75 1.738281 -22.753906 1.6875 -22.765625 L 1.625 -22.78125 C 1.019531 -22.925781 0.71875 -23.300781 0.71875 -23.90625 L 0.71875 -26.03125 L 19.859375 -26.03125 L 19.859375 -19.203125 L 17.796875 -19.203125 C 17.347656 -19.203125 17.070312 -19.421875 16.96875 -19.859375 C 16.820312 -20.984375 16.734375 -21.757812 16.703125 -22.1875 L 8.3125 -22.1875 L 8.3125 -14.984375 L 17.140625 -14.984375 L 17.140625 -11.234375 L 8.3125 -11.234375 L 8.3125 -3.890625 L 16.703125 -3.890625 C 16.734375 -4.273438 16.820312 -5.039062 16.96875 -6.1875 C 17.070312 -6.644531 17.347656 -6.875 17.796875 -6.875 L 19.859375 -6.875 L 19.859375 0 Z M 0.71875 0 "/></g></g></g><g fill="#ffffff" fill-opacity="1"><g transform="translate(187.768286, 296.995308)"><g/></g></g></svg>